<svg xmlns="http://www.w3.org/2000/svg" version="1.1" xmlns:xlink="http://www.w3.org/1999/xlink" xmlns:svgjs="http://svgjs.dev/svgjs" width="1000" height="1000" viewBox="0 0 1000 1000"><rect width="1000" height="1000" fill="#ecab55"></rect><g transform="matrix(0.7,0,0,0.7,149.57575757575756,205.57227654319476)"><svg viewBox="0 0 396 285" data-background-color="#ecab55" preserveAspectRatio="xMidYMid meet" height="719" width="1000" xmlns="http://www.w3.org/2000/svg" xmlns:xlink="http://www.w3.org/1999/xlink"><g id="tight-bounds" transform="matrix(1,0,0,1,0.2400000000000091,24.22342774724717)"><svg viewBox="0 0 395.52 247.2" height="247.2" width="395.52"><g><svg></svg></g><g><svg viewBox="0 0 395.52 247.2" height="247.2" width="395.52"><g transform="matrix(1,0,0,1,39.55199999999999,80.63250098879365)"><svg viewBox="0 0 316.416 85.93499802241267" height="85.93499802241267" width="316.416"><g><svg viewBox="0 0 316.416 85.93499802241267" height="85.93499802241267" width="316.416"><g><svg viewBox="0 0 316.416 85.93499802241267" height="85.93499802241267" width="316.416"><g><svg viewBox="0 0 316.416 85.93499802241267" height="85.93499802241267" width="316.416"><g><svg viewBox="0 0 316.416 85.93499802241267" height="85.93499802241267" width="316.416"><g><svg viewBox="0 0 316.416 85.93499802241267" height="85.93499802241267" width="316.416"><g transform="matrix(1,0,0,1,0,0)"><svg width="316.416" viewBox="0.5 -39.25 151.69000244140625 41.20000076293945" height="85.93499802241267" data-palette-color="#ffffff"><path d="M51.9-9.6L51.9-9.6Q51.9-6.75 49.85-4.3L49.85-4.3Q46.95-0.8 42.1 0.75L42.1 0.75Q38.5 1.9 35.1 1.9L35.1 1.9Q33.85 1.9 32.65 1.75L32.65 1.75Q24.8 0.75 19.35-1.7L19.35-1.7Q14.4 1.95 8.9 1.95L8.9 1.95Q2.4 1.95 0.85-1.65L0.85-1.65Q0.5-2.5 0.5-3.65 0.5-4.8 1.65-6.1L1.65-6.1Q3.45-8.1 6.65-8.1L6.65-8.1Q8.75-8.1 10.45-7.5 12.15-6.9 14.65-5.55 17.15-4.2 18.35-3.6L18.35-3.6Q20.55-5.75 22.9-9.58 25.25-13.4 27.03-17.07 28.8-20.75 31.55-25.25 34.3-29.75 37.15-32.9L37.15-32.9 40-36.15Q36.05-36.85 31.3-36.85 26.55-36.85 20.85-35.6L20.85-35.6Q13.05-33.95 8.85-28.9L8.85-28.9Q6.3-25.85 6.3-23.1L6.3-23.1Q6.3-19.45 9.85-18.35L9.85-18.35Q11.1-18 12.05-18 13-18 14.25-18.35 15.5-18.7 16.68-19.83 17.85-20.95 18.38-22 18.9-23.05 18.9-23.58 18.9-24.1 19.4-24.1L19.4-24.1Q19.9-24.05 19.95-23.4L19.95-23.4 19.95-23.35Q19.4-19.7 16.05-17.8L16.05-17.8Q14-16.7 11.95-16.7L11.95-16.7 9.35-17.15Q4.05-19 4.05-24.05L4.05-24.05Q4.05-27.5 7.1-30.85L7.1-30.85Q12-36.35 21.5-37.7L21.5-37.7Q26.1-38.35 31.08-38.35 36.05-38.35 41.2-37.25L41.2-37.25Q42.6-38.45 43.65-38.85 44.7-39.25 44.88-39.25 45.05-39.25 45.1-39.2L45.1-39.2Q45.4-39.2 45.23-38.88 45.05-38.55 44.13-37.95 43.2-37.35 43-36.85L43-36.85Q49.8-35.1 52.8-31.85L52.8-31.85Q54.4-30.05 54.4-28.18 54.4-26.3 53.3-24.4L53.3-24.4Q51.85-21.9 48.6-20.63 45.35-19.35 42.05-19.2L42.05-19.2Q45.25-18.2 48-16.4L48-16.4Q51.9-13.85 51.9-9.6ZM34.4 0.5L34.4 0.5Q40 0.5 43.9-2.7L43.9-2.7Q48.15-6.1 48.15-10.05L48.15-10.05Q48.15-14.15 43.8-16.25L43.8-16.25Q42.2-17 39.88-17.73 37.55-18.45 36.13-18.95 34.7-19.45 34.5-19.9L34.5-19.9Q34.5-20.85 35.95-20.9L35.95-20.9Q36.9-20.9 38.85-20.75 40.8-20.6 42.2-20.63 43.6-20.65 45.58-21.63 47.55-22.6 48.95-24.15L48.95-24.15Q51.2-26.65 51.2-28.85L51.2-28.85Q51.2-33.55 42.4-35.6L42.4-35.6Q39.75-31.95 32.9-20.18 26.05-8.4 22.35-4.4L22.35-4.4 20.45-2.6Q26.1-0.25 32.6 0.4L32.6 0.4Q33.55 0.5 34.4 0.5ZM17.25-2.65L17.25-2.65Q11.4-5.45 9.85-6 8.3-6.55 6.78-6.55 5.25-6.55 4.35-5.48 3.45-4.4 3.45-3.53 3.45-2.65 3.85-1.85L3.85-1.85Q4.95 0.4 8.45 0.4L8.45 0.4Q13.2 0.4 17.25-2.65ZM57.1-7.7L57.1-7.7Q56.4-6 56.4-3.9L56.4-3.9Q56.4-2.5 57.02-1.68 57.65-0.85 58.8-0.85L58.8-0.85Q63.35-0.85 67.05-9.4L67.05-9.4Q67.4-10.2 67.9-10.1L67.9-10.1Q68.1-10.05 68.1-9.85 68.1-9.65 66.97-7.23 65.85-4.8 64.7-3.3L64.7-3.3Q62.15 0.2 58.4 0.2L58.4 0.2Q56.4 0.2 55-1.1 53.6-2.4 53.6-4.65 53.6-6.9 54.67-9.43 55.75-11.95 57.6-14.13 59.45-16.3 61.85-17.3L61.85-17.3Q63-17.8 64.05-17.8 65.1-17.8 66-17.2L66-17.2Q66.85-16.5 66.85-15.65L66.85-15.65Q66.85-12.65 63.25-9.9L63.25-9.9Q62.15-9.05 60.15-8.38 58.15-7.7 57.1-7.7ZM65.5-15.7L65.5-15.7Q65.5-16.7 64.7-16.7L64.7-16.7Q63.3-16.7 60.45-13.25L60.45-13.25Q58.75-11.15 57.45-8.55L57.45-8.55Q58.3-8.55 59.92-9.15 61.55-9.75 62.75-10.75L62.75-10.75Q65.5-13.1 65.5-15.7ZM73.9-20.05L73.9-20.05Q73.9-17.8 71.05-15.8L71.05-15.8Q72.05-15.75 73.72-15.75 75.4-15.75 77.95-16L77.95-16Q78.05-15.85 78.05-15.2 78.05-14.55 77.45-13.28 76.85-12 76.37-11.08 75.9-10.15 75.47-9.33 75.05-8.5 74.52-7.3 74-6.1 73.65-5.1L73.65-5.1Q72.4-1.3 74.05-1.3L74.05-1.3Q76.15-1.3 80.25-9.65L80.25-9.65Q80.6-10.3 80.82-10.15 81.05-10 81.05-9.78 81.05-9.55 80.4-8.22 79.75-6.9 79-5.5 78.25-4.1 76.65-2.25L76.65-2.25Q74.75 0.05 73 0.05L73 0.05Q71.05 0.05 70.3-2.3L70.3-2.3Q70.15-2.75 70.15-3.65 70.15-4.55 70.72-6.05 71.3-7.55 72.55-9.7 73.8-11.85 73.95-12.23 74.1-12.6 74.1-12.95L74.1-12.95Q74.1-14.5 70.1-14.6L70.1-14.6 69.5-13Q66.35-4.75 63.45-1.95L63.45-1.95Q62.95-1.5 62.95-2.25L62.95-2.25Q62.95-2.4 63.05-2.6L63.05-2.6Q65.85-6.3 67.9-11.35 69.95-16.4 70.75-20.95L70.75-20.95Q71.05-22.5 72.15-22.5 73.25-22.5 73.75-21.1L73.75-21.1Q73.9-20.65 73.9-20.05ZM95.29-16.4L95.29-16.4Q89.14-5.6 89.14-2.3L89.14-2.3Q89.14-1 90.09-1L90.09-1Q92.64-1 96.94-9.65L96.94-9.65Q97.24-10.35 97.54-10.2 97.84-10.05 97.84-9.8 97.84-9.55 97.64-9.2L97.64-9.2Q94.99-3.85 93.17-1.83 91.34 0.2 89.52 0.2 87.69 0.2 86.74-1.2L86.74-1.2Q86.24-1.85 86.24-2.98 86.24-4.1 86.74-5.7 87.24-7.3 89.49-10.9L89.49-10.9Q90.04-11.8 90.04-12.33 90.04-12.85 89.19-12.85 88.34-12.85 85.94-10.6L85.94-10.6Q82.34-7.3 78.99-0.7L78.99-0.7Q78.69-0.2 78.32-0.08 77.94 0.05 76.84 0.1 75.74 0.15 75.39 0.35L75.39 0.35Q76.19-1.25 78.54-6.2L78.54-6.2Q82.74-14.95 84.04-16.2L84.04-16.2Q84.64-16.8 85.69-16.8L85.69-16.8Q85.89-16.8 86.72-16.65 87.54-16.5 87.94-16.6L87.94-16.6Q86.09-15.6 81.89-7.2L81.89-7.2Q84.24-10.1 86.17-11.83 88.09-13.55 90.79-15.03 93.49-16.5 94.74-16.5L94.74-16.5Q95.04-16.5 95.29-16.4ZM112.14-13.55Q111.24-12.65 109.59-9.47 107.94-6.3 107.62-4.73 107.29-3.15 107.29-2.18 107.29-1.2 108.04-1.2L108.04-1.2Q108.99-1.2 110.39-2.95L110.39-2.95Q112.44-5.5 114.44-9.6L114.44-9.6Q114.64-10.05 114.89-10.1L114.89-10.1Q115.29-10.25 115.29-9.8L115.29-9.8Q115.29-9.55 115.14-9.2L115.14-9.2Q110.54 0.1 107.39 0.1L107.39 0.1Q105.94 0.1 105.04-1.3L105.04-1.3Q104.59-2.05 104.59-3.3 104.59-4.55 105.09-6.35L105.09-6.35Q101.09 0.1 98.19 0.1L98.19 0.1Q97.39 0.1 96.74-0.4L96.74-0.4Q95.24-1.45 95.24-4L95.24-4Q95.24-8.9 99.49-13.95L99.49-13.95Q101.89-16.75 105.39-17.6L105.39-17.6Q106.34-17.85 107.19-17.85L107.19-17.85Q109.49-17.85 111.09-16.25L111.09-16.25Q111.59-15.7 111.39-15.2 111.19-14.7 110.54-14.8L110.54-14.8Q109.99-16.6 108.14-16.6L108.14-16.6Q105.99-16.6 102.84-13.2L102.84-13.2Q101.04-11.2 99.49-8.5L99.49-8.5Q97.54-5.25 97.54-3.3 97.54-1.35 98.79-1.35L98.79-1.35Q101.79-1.35 106.64-10.55L106.64-10.55Q107.59-12.4 108.24-13.08 108.89-13.75 109.89-13.75L109.89-13.75Q110.09-13.75 110.92-13.6 111.74-13.45 112.14-13.55L112.14-13.55ZM121.14-20.05L121.14-20.05Q121.14-17.8 118.29-15.8L118.29-15.8Q119.29-15.75 120.96-15.75 122.64-15.75 125.19-16L125.19-16Q125.29-15.85 125.29-15.2 125.29-14.55 124.69-13.28 124.09-12 123.61-11.08 123.14-10.15 122.71-9.33 122.29-8.5 121.76-7.3 121.24-6.1 120.89-5.1L120.89-5.1Q119.64-1.3 121.29-1.3L121.29-1.3Q123.39-1.3 127.49-9.65L127.49-9.65Q127.84-10.3 128.06-10.15 128.29-10 128.29-9.78 128.29-9.55 127.64-8.22 126.99-6.9 126.24-5.5 125.49-4.1 123.89-2.25L123.89-2.25Q121.99 0.05 120.24 0.05L120.24 0.05Q118.29 0.05 117.54-2.3L117.54-2.3Q117.39-2.75 117.39-3.65 117.39-4.55 117.96-6.05 118.54-7.55 119.79-9.7 121.04-11.85 121.19-12.23 121.34-12.6 121.34-12.95L121.34-12.95Q121.34-14.5 117.34-14.6L117.34-14.6 116.74-13Q113.59-4.75 110.69-1.95L110.69-1.95Q110.19-1.5 110.19-2.25L110.19-2.25Q110.19-2.4 110.29-2.6L110.29-2.6Q113.09-6.3 115.14-11.35 117.19-16.4 117.99-20.95L117.99-20.95Q118.29-22.5 119.39-22.5 120.49-22.5 120.99-21.1L120.99-21.1Q121.14-20.65 121.14-20.05ZM137.99-2.9L137.99-2.9Q137.99-1.3 139.29-1.3L139.29-1.3Q141.64-1.3 145.54-9.15L145.54-9.15Q145.69-9.45 145.81-9.75 145.94-10.05 146.21-10.15 146.49-10.25 146.59-10.03 146.69-9.8 146.49-9.3L146.49-9.3Q142.49 0 138.39 0L138.39 0Q137.04 0 136.24-1.2 135.44-2.4 135.44-3.58 135.44-4.75 135.69-5.75L135.69-5.75Q132.79-0.95 130.69-0.3L130.69-0.3Q130.09-0.05 129.51-0.05 128.94-0.05 128.39-0.2L128.39-0.2Q125.94-0.85 125.94-4.1L125.94-4.1Q125.94-6.3 127.06-8.97 128.19-11.65 130.24-14.1 132.29-16.55 135.19-17.4L135.19-17.4Q136.24-17.75 137.66-17.75 139.09-17.75 140.84-16.85L140.84-16.85Q144.24-23.25 146.64-28.7L146.64-28.7Q147.34-30.35 148.01-30.83 148.69-31.3 149.26-31.3 149.84-31.3 149.96-31.3 150.09-31.3 150.91-31.18 151.74-31.05 152.19-31.1L152.19-31.1Q151.04-30.05 146.09-20.9L146.09-20.9Q139.79-9.2 138.49-5.3L138.49-5.3Q137.99-3.85 137.99-2.9ZM140.44-16.05L140.44-16.05Q139.79-16.7 138.61-16.7 137.44-16.7 135.34-14.95L135.34-14.95Q131.99-12.15 129.79-8.05L129.79-8.05Q128.34-5.35 128.34-3.6L128.34-3.6Q128.34-2.8 128.66-2.15 128.99-1.5 129.69-1.5L129.69-1.5Q131.39-1.5 133.89-5 136.39-8.5 140.44-16.05Z" opacity="1" transform="matrix(1,0,0,1,0,0)" fill="#ffffff" class="undefined-text-0" data-fill-palette-color="primary" id="text-0"></path></svg></g></svg></g></svg></g></svg></g></svg></g></svg></g></svg></g><g mask="url(#37833eff-3f5a-4b9c-a81e-a5aec85b93c4)"><g transform="matrix(3.528057553956834, 0, 0, 3.528057553956834, 75.16, 1)"><svg xmlns="http://www.w3.org/2000/svg" data-name="Layer 1" viewBox="10.250001907348633 10.25 69.5 69.5" x="0" y="0" height="69.5" width="69.5" class="icon-none" data-fill-palette-color="accent" id="none"><path d="M45 10.25A34.75 34.75 0 1 0 79.75 45 34.79 34.79 0 0 0 45 10.25Zm0 67A32.25 32.25 0 1 1 77.25 45 32.29 32.29 0 0 1 45 77.25Z" fill="#ffffff" data-fill-palette-color="accent"></path><path d="M17.34 35.69a1 1 0 0 0-1.42 0 1 1 0 0 0-0.22 0.33 1 1 0 0 0 1.64 1.08A1 1 0 0 0 17.55 36 0.94 0.94 0 0 0 17.34 35.69Z" fill="#ffffff" data-fill-palette-color="accent"></path><path d="M59.22 33.55l0.15 0a1 1 0 0 0 1-0.86 1 1 0 1 0-1.13 0.84Z" fill="#ffffff" data-fill-palette-color="accent"></path><path d="M49.83 30.67a1 1 0 0 0-0.08 2h0a1 1 0 0 0 1-1A1 1 0 0 0 49.83 30.67Z" fill="#ffffff" data-fill-palette-color="accent"></path><path d="M30.61 33.92l0.17 0a1 1 0 1 0-0.17 0Z" fill="#ffffff" data-fill-palette-color="accent"></path><path d="M25.89 34.81a0.76 0.76 0 0 0 0.21 0 1 1 0 1 0-0.43-2h0a1 1 0 0 0 0.22 2Z" fill="#ffffff" data-fill-palette-color="accent"></path><path d="M21.48 35.93a1 1 0 1 0-0.27 0A0.84 0.84 0 0 0 21.48 35.93Z" fill="#ffffff" data-fill-palette-color="accent"></path><path d="M40.24 32.81a1 1 0 1 0-0.07 0Z" fill="#ffffff" data-fill-palette-color="accent"></path><path d="M45 32.61h0a1 1 0 0 0 1-1 1 1 0 0 0-1-1 1 1 0 0 0-1 1A1 1 0 0 0 45 32.61Z" fill="#ffffff" data-fill-palette-color="accent"></path><path d="M63.89 34.4a0.73 0.73 0 0 0 0.21 0 1 1 0 1 0-1-1.2A1 1 0 0 0 63.89 34.4Z" fill="#ffffff" data-fill-palette-color="accent"></path><path d="M69 33.6h0a1 1 0 0 0-0.54 1.92 0.83 0.83 0 0 0 0.27 0 1 1 0 0 0 1-0.73A1 1 0 0 0 69 33.6Z" fill="#ffffff" data-fill-palette-color="accent"></path><path d="M74.3 35.61a1 1 0 0 0-0.22-0.32 1 1 0 0 0-0.32-0.22 1 1 0 0 0-1.09 0.22 0.88 0.88 0 0 0-0.22 0.32 1.05 1.05 0 0 0-0.08 0.39 1 1 0 0 0 0.3 0.7 0.87 0.87 0 0 0 0.32 0.22 1 1 0 0 0 1.09-0.22 1 1 0 0 0 0.29-0.7A1 1 0 0 0 74.3 35.61Z" fill="#ffffff" data-fill-palette-color="accent"></path><path d="M40.59 63.22a1 1 0 0 0-0.44 1.35 1 1 0 0 0 0.89 0.55 1 1 0 0 0 0.45-0.11 1 1 0 0 0-0.9-1.79Z" fill="#ffffff" data-fill-palette-color="accent"></path><path d="M63.71 46.61a1 1 0 0 0 0.71 1.7 1 1 0 0 0 0.71-0.29 1 1 0 0 0 0-1.42A1 1 0 0 0 63.71 46.61Z" fill="#ffffff" data-fill-palette-color="accent"></path><path d="M31.87 67.1A1 1 0 0 0 32.24 69 0.92 0.92 0 0 0 32.6 69a1 1 0 1 0-0.73-1.86Z" fill="#ffffff" data-fill-palette-color="accent"></path><path d="M48.88 58.52a1 1 0 0 0-0.3 1.38 1 1 0 0 0 0.84 0.46 1.08 1.08 0 0 0 0.54-0.15 1 1 0 0 0 0.3-1.38A1 1 0 0 0 48.88 58.52Z" fill="#ffffff" data-fill-palette-color="accent"></path><path d="M36.28 65.27a1 1 0 0 0 0.4 1.91 1 1 0 0 0 0.41-0.09 1 1 0 1 0-0.81-1.82Z" fill="#ffffff" data-fill-palette-color="accent"></path><path d="M66.93 43.11a1 1 0 0 0 0.1 1.41 1 1 0 0 0 0.66 0.24 1 1 0 1 0-0.76-1.65Z" fill="#ffffff" data-fill-palette-color="accent"></path><path d="M69.91 39.42a1 1 0 0 0 0.2 1.4 1 1 0 0 0 0.6 0.2 1 1 0 0 0 0.8-0.41 1 1 0 1 0-1.6-1.19Z" fill="#ffffff" data-fill-palette-color="accent"></path><path d="M54 57.48a1 1 0 0 0-1.17-1.63 1 1 0 0 0 0.59 1.82A1 1 0 0 0 54 57.48Z" fill="#ffffff" data-fill-palette-color="accent"></path><path d="M57.88 54.54a1 1 0 1 0-1.4-0.15 1 1 0 0 0 0.78 0.37A1 1 0 0 0 57.88 54.54Z" fill="#ffffff" data-fill-palette-color="accent"></path><path d="M28.41 69a0.83 0.83 0 0 0-0.33-0.22 1 1 0 0 0-0.76 0A1 1 0 0 0 27 69a1 1 0 0 0-0.21 0.32A1 1 0 0 0 27 70.39a1 1 0 0 0 1.42 0 0.93 0.93 0 0 0 0.29-0.71 1 1 0 0 0-0.08-0.38A1 1 0 0 0 28.41 69Z" fill="#ffffff" data-fill-palette-color="accent"></path><path d="M27.36 61h0.07a1 1 0 0 0 0.07-2 1 1 0 0 0-0.14 2Z" fill="#ffffff" data-fill-palette-color="accent"></path><path d="M42.69 18.77a1 1 0 0 0-1.38 0.3 1 1 0 0 0 0.3 1.38 1 1 0 0 0 0.54 0.16 1 1 0 0 0 0.84-0.45h0A1 1 0 0 0 42.69 18.77Z" fill="#ffffff" data-fill-palette-color="accent"></path><path d="M33.55 35.76a1 1 0 1 0-0.76 1.85 1 1 0 0 0 0.38 0.08 1 1 0 0 0 0.38-1.93Z" fill="#ffffff" data-fill-palette-color="accent"></path><path d="M27.32 65.88a1 1 0 1 0-1-1 1 1 0 0 0 1 1Z" fill="#ffffff" data-fill-palette-color="accent"></path><path d="M37.73 27.06a1 1 0 1 0-0.93 1.77 1 1 0 0 0 0.46 0.12 1 1 0 0 0 0.89-0.54A1 1 0 0 0 37.73 27.06Z" fill="#ffffff" data-fill-palette-color="accent"></path><path d="M40.48 24.23a1 1 0 0 0-0.36-1.37 1 1 0 0 0-1.36 0.36 1 1 0 0 0 0.35 1.37 1.06 1.06 0 0 0 0.51 0.14A1 1 0 0 0 40.48 24.23Z" fill="#ffffff" data-fill-palette-color="accent"></path><path d="M30.28 44.85a1 1 0 0 0-0.55 1.92 0.94 0.94 0 0 0 0.28 0 1 1 0 0 0 1-0.72A1 1 0 0 0 30.28 44.85Z" fill="#ffffff" data-fill-palette-color="accent"></path><path d="M28.11 54.26a1 1 0 1 0-0.29 2H28a1 1 0 0 0 0.15-2Z" fill="#ffffff" data-fill-palette-color="accent"></path><path d="M32.41 41.54a1 1 0 1 0-1.89-0.66 1 1 0 0 0 0.61 1.27 1 1 0 0 0 0.33 0.06A1 1 0 0 0 32.41 41.54Z" fill="#ffffff" data-fill-palette-color="accent"></path><path d="M35.54 31.36a1 1 0 0 0-0.36-0.08 1 1 0 0 0-0.49 1.9 0.9 0.9 0 0 0 0.42 0.1 1 1 0 0 0 0.21 0 1 1 0 0 0 0.22-1.88Z" fill="#ffffff" data-fill-palette-color="accent"></path><path d="M44.85 16.59a1 1 0 0 0 0.39-0.07 1 1 0 0 0 0.32-0.22 1 1 0 0 0 0.22-1.09 1 1 0 0 0-0.22-0.32 1 1 0 0 0-0.9-0.28 0.68 0.68 0 0 0-0.19 0.06 0.86 0.86 0 0 0-0.17 0.09 0.64 0.64 0 0 0-0.15 0.13 1 1 0 0 0-0.3 0.7 1 1 0 0 0 0.3 0.71A1 1 0 0 0 44.85 16.59Z" fill="#ffffff" data-fill-palette-color="accent"></path><path d="M60.7 45.4a1 1 0 1 0-1.91 0.57 1 1 0 0 0 0.95 0.71 1 1 0 0 0 0.29 0A1 1 0 0 0 60.7 45.4Z" fill="#ffffff" data-fill-palette-color="accent"></path><path d="M57.3 41.44a1 1 0 0 0 0.94 0.66 1.06 1.06 0 0 0 0.34-0.06 1 1 0 1 0-0.68-1.88A1 1 0 0 0 57.3 41.44Z" fill="#ffffff" data-fill-palette-color="accent"></path><path d="M56.88 37.54a1 1 0 0 0 0.54-1.31 1 1 0 0 0-1.3-0.54A1 1 0 0 0 55.58 37a1 1 0 0 0 1.3 0.54Z" fill="#ffffff" data-fill-palette-color="accent"></path><path d="M62.12 56a1 1 0 1 0-0.34-2 1 1 0 0 0 0.17 2Z" fill="#ffffff" data-fill-palette-color="accent"></path><path d="M62.59 60.81h0.1a1 1 0 1 0-0.2-2 1 1 0 0 0 0.1 2Z" fill="#ffffff" data-fill-palette-color="accent"></path><path d="M50.94 23.18a1 1 0 1 0-0.86 1.5 1 1 0 0 0 0.87-1.5Z" fill="#ffffff" data-fill-palette-color="accent"></path><path d="M48.41 19a1 1 0 1 0-1.68 1.08 1 1 0 0 0 0.84 0.46 1.05 1.05 0 0 0 0.54-0.16A1 1 0 0 0 48.41 19Z" fill="#ffffff" data-fill-palette-color="accent"></path><path d="M62.86 63.63a1 1 0 0 0 0 2h0a1 1 0 0 0 1-1A1 1 0 0 0 62.86 63.63Z" fill="#ffffff" data-fill-palette-color="accent"></path><path d="M53.29 27.43A1 1 0 0 0 51.94 27a1 1 0 0 0 0.47 1.89 1 1 0 0 0 0.46-0.12A1 1 0 0 0 53.29 27.43Z" fill="#ffffff" data-fill-palette-color="accent"></path><path d="M54.68 31a1 1 0 0 0-1.09 0.9s0 0 0 0.07a1 1 0 0 0 0.9 1h0.09a1 1 0 0 0 1-0.8 0.9 0.9 0 0 0 0-0.1A1 1 0 0 0 54.68 31Z" fill="#ffffff" data-fill-palette-color="accent"></path><path d="M62 50.11a1 1 0 0 0-1.2-0.75A1.07 1.07 0 0 0 60 50.56a1 1 0 0 0 1 0.77 0.93 0.93 0 0 0 0.23 0 1 1 0 0 0 0.7-0.67A1 1 0 0 0 62 50.11Z" fill="#ffffff" data-fill-palette-color="accent"></path><path d="M62.39 68.51a1.19 1.19 0 0 0-0.33 0.22 1 1 0 0 0-0.29 0.71 1 1 0 0 0 0.08 0.38 1 1 0 0 0 0.21 0.32 1 1 0 0 0 1.71-0.7 1 1 0 0 0-0.29-0.71A1 1 0 0 0 62.39 68.51Z" fill="#ffffff" data-fill-palette-color="accent"></path><path d="M22.94 43.61a1 1 0 0 0-1.4-0.11 1 1 0 0 0-0.11 1.41 1 1 0 1 0 1.51-1.31Z" fill="#ffffff" data-fill-palette-color="accent"></path><path d="M18.63 39.65a1 1 0 0 0-0.24 1.4 1 1 0 0 0 0.82 0.42 1 1 0 0 0 0.58-0.19 1 1 0 0 0-1.16-1.63Z" fill="#ffffff" data-fill-palette-color="accent"></path><path d="M26.19 47.06a1 1 0 0 0-1.41 0 1 1 0 0 0 0.72 1.7 1 1 0 0 0 0.71-0.29A1 1 0 0 0 26.19 47.06Z" fill="#ffffff" data-fill-palette-color="accent"></path><path d="M49.81 63.06a1 1 0 1 0-0.87 1.8 0.93 0.93 0 0 0 0.43 0.1 1 1 0 0 0 0.44-1.9Z" fill="#ffffff" data-fill-palette-color="accent"></path><path d="M54.16 65.06a1 1 0 0 0-1.31 0.52 1 1 0 0 0 0.51 1.32 1.14 1.14 0 0 0 0.4 0.08 1 1 0 0 0 0.92-0.6A1 1 0 0 0 54.16 65.06Z" fill="#ffffff" data-fill-palette-color="accent"></path><path d="M44.42 62.34A1 1 0 0 1 44.8 61a1 1 0 0 1 0.69-0.11 1 1 0 0 0-0.89 1.78 1 1 0 0 0 0.25 0.09A1 1 0 0 1 44.42 62.34Z" fill="#ffffff" data-fill-palette-color="accent"></path><path d="M58.59 66.88a1 1 0 1 0-0.72 1.87 1.15 1.15 0 0 0 0.36 0.07 1 1 0 0 0 0.36-1.94Z" fill="#ffffff" data-fill-palette-color="accent"></path><path d="M32 53.44a1 1 0 0 0 0.21 1.4 0.92 0.92 0 0 0 0.59 0.2 1 1 0 0 0 0.8-0.4 1 1 0 1 0-1.6-1.2Z" fill="#ffffff" data-fill-palette-color="accent"></path><path d="M37.33 56a1 1 0 0 0-1.38 0.28 1 1 0 0 0 0.83 1.55 1 1 0 0 0 0.83-0.44A1 1 0 0 0 37.33 56Z" fill="#ffffff" data-fill-palette-color="accent"></path><path d="M40.35 60.25a1 1 0 0 0 0.52 0.14 1 1 0 0 0 0.86-0.48 1 1 0 0 0-0.35-1.38 1 1 0 0 0-1.37 0.35A1 1 0 0 0 40.35 60.25Z" fill="#ffffff" data-fill-palette-color="accent"></path><path d="M45.95 62.23a1 1 0 0 0-0.41-1.35l-0.05 0a1 1 0 0 0-0.69 0.11 1 1 0 0 0-0.38 1.36 1 1 0 0 0 0.43 0.4l0.22 0A1 1 0 0 0 45.95 62.23Z" fill="#ffffff" data-fill-palette-color="accent"></path><path d="M29.81 50.4a1 1 0 0 0-0.1-0.13A1 1 0 1 0 29.06 52a1 1 0 0 0 0.76-0.35A1 1 0 0 0 29.81 50.4Z" fill="#ffffff" data-fill-palette-color="accent"></path></svg></g></g></svg></g><defs><mask id="37833eff-3f5a-4b9c-a81e-a5aec85b93c4"><rect width="640" height="400" fill="white"></rect><rect width="348.05760000000004" height="126.50937920869086" fill="black" x="145.97119999999998" y="136.74531039565457" id="transform-me" transform="matrix(1,0,0,1,-122.24000000000001,-76.4)"></rect></mask></defs></svg><rect width="395.52" height="247.2" fill="none" stroke="none" visibility="hidden"></rect></g></svg></g></svg>